<?xml version="1.0" encoding="UTF-8"?>
<svg version="1.1" xmlns="http://www.w3.org/2000/svg" width="512" height="512">
<path d="M0 0 C3.7831595 2.71400573 4.84616341 4.21799735 5.75 8.8125 C5.51567578 12.42118652 4.34462317 14.14396241 1.92735291 16.78039551 C1.29127043 17.47681656 0.65518795 18.17323761 -0.00016975 18.89076233 C-3.14809777 22.21090832 -6.3437566 25.47477283 -9.58764648 28.70117188 C-10.31043289 29.42410431 -11.0332193 30.14703674 -11.77790833 30.89187622 C-14.13993791 33.2532156 -16.50547713 35.61100465 -18.87109375 37.96875 C-20.52040633 39.61619522 -22.16949657 41.26386306 -23.81837463 42.91174316 C-28.13811672 47.22768507 -32.46085453 51.54061417 -36.78424072 55.85290527 C-41.20369041 60.26208686 -45.62027598 64.67413536 -50.03710938 69.0859375 C-58.68861856 77.72675349 -67.34329788 86.36438671 -76 95 C-75.16970433 95.00331015 -74.33940866 95.00662029 -73.48395252 95.01003075 C-53.28675138 95.09122936 -33.08962548 95.18331154 -12.89252949 95.28752708 C-3.12539043 95.33766199 6.6417402 95.38410483 16.40893555 95.421875 C24.92140905 95.45480245 33.43381729 95.49463788 41.94621879 95.54279006 C46.45401309 95.56804752 50.96176414 95.58983106 55.46961021 95.60334396 C59.71229275 95.6161711 63.95482693 95.63823262 68.19742775 95.66738319 C69.75465415 95.67645385 71.31190444 95.68214801 72.86915588 95.68421364 C74.99579935 95.68753982 77.12202311 95.70302644 79.24858093 95.7215271 C81.03363305 95.72982324 81.03363305 95.72982324 82.85474682 95.73828697 C86.88043184 96.07325976 89.7883224 96.91366836 92.8125 99.625 C94.53154938 103.06309877 94.67168473 106.27989997 94 110 C91.29873537 114.53426563 91.29873537 114.53426563 88.27382278 115.6190176 C85.28334988 116.1200758 82.40198288 116.14178492 79.36883545 116.15821838 C78.37140568 116.16562535 78.37140568 116.16562535 77.35382581 116.17318195 C75.12748791 116.18853019 72.90117879 116.19691029 70.67480469 116.20532227 C69.07817329 116.21490289 67.48154443 116.22491309 65.88491821 116.23532104 C61.55059873 116.26235615 57.21626838 116.28337328 52.88191128 116.30332303 C48.35218258 116.32519116 43.82248734 116.35257581 39.29278564 116.37937927 C30.71518989 116.42929495 22.13757554 116.47423797 13.55994344 116.51740164 C3.79459722 116.56678361 -5.97071541 116.62169819 -15.73602915 116.67708123 C-35.82398815 116.79088401 -55.91197921 116.89772678 -76 117 C-75.58254768 117.40915618 -75.16509537 117.81831236 -74.73499298 118.23986721 C-64.56974113 128.20618885 -54.4296064 138.19747992 -44.31673431 148.21695614 C-39.42554422 153.06177753 -34.52627023 157.89785816 -29.60693359 162.71411133 C-24.85965197 167.36196194 -20.13625157 172.03319072 -15.42674255 176.71936226 C-13.62602715 178.50344623 -11.81740737 180.27958841 -10.00086975 182.04755974 C-7.45771567 184.52538947 -4.94413049 187.02996793 -2.43554688 189.54272461 C-1.67813705 190.26777695 -0.92072723 190.99282928 -0.1403656 191.73985291 C3.36310966 195.30692606 5.45087432 197.71303146 5.59753418 202.84107971 C5.39847861 206.23768452 4.95289814 207.06649675 2.875 210 C-0.3910541 212.27203763 -2.01904979 213.079619 -6 213 C-12.97241921 209.83251674 -17.83758253 204.56633821 -23.15795898 199.18261719 C-24.16325984 198.176469 -25.16922397 197.17098315 -26.17579651 196.16610718 C-28.89279609 193.44996481 -31.6004761 190.72470345 -34.30652499 187.99765682 C-37.14117632 185.14419293 -39.98438234 182.29927863 -42.82667542 179.45343018 C-48.20154623 174.06925233 -53.56872678 168.67747618 -58.93315798 163.28289914 C-65.04333449 157.1391368 -71.16207882 151.00393777 -77.28154266 144.86942816 C-89.86389029 132.25576192 -102.43548732 119.63143054 -115 107 C-113.52015245 103.57357768 -111.59234053 101.33897918 -108.96551514 98.70481873 C-108.12160721 97.85382599 -107.27769928 97.00283325 -106.40821838 96.12605286 C-105.01650673 94.73805733 -105.01650673 94.73805733 -103.59667969 93.32202148 C-102.61065053 92.33164386 -101.62503978 91.34084951 -100.63981628 90.34967041 C-97.96464363 87.66110976 -95.28310261 84.97898795 -92.59996319 82.29838061 C-90.35917551 80.05866296 -88.12137226 77.81597512 -85.88351655 75.57332855 C-80.60259058 70.28130769 -75.31635394 64.99463301 -70.02685547 59.71118164 C-64.57408893 54.26445326 -59.13055877 48.80861765 -53.69147372 43.34822983 C-49.01823795 38.65736652 -44.3392029 33.97234354 -39.65551877 29.29191262 C-36.85964919 26.49785448 -34.06604179 23.70162624 -31.27803802 20.89971733 C-28.65489093 18.26397814 -26.02456272 15.63562098 -23.38860512 13.01269531 C-21.96536157 11.59293819 -20.54950254 10.16579038 -19.13389587 8.73841858 C-18.27870865 7.89024567 -17.42352142 7.04207275 -16.54241943 6.16819763 C-15.8057391 5.43134955 -15.06905876 4.69450148 -14.31005478 3.93532467 C-9.7084907 0.08021241 -5.87384575 -1.99960706 0 0 Z " fill="#000000" transform="translate(418,150)"/>
<path d="M0 0 C2.42371178 1.72067165 2.42371178 1.72067165 4.75326538 3.94786072 C6.04892992 5.17416608 6.04892992 5.17416608 7.3707695 6.42524529 C8.23841557 7.27491434 9.10606163 8.1245834 10 9 C10.80278004 9.77878572 11.60556007 10.55757145 12.43266678 11.35995674 C14.95601361 13.83361391 17.45434046 16.330412 19.94775391 18.83422852 C20.89481444 19.78157206 21.84209707 20.72869362 22.7895813 21.6756134 C25.3283407 24.21408923 27.86403384 26.75560706 30.39913225 29.29773831 C33.06117678 31.9660905 35.72610775 34.63155696 38.39071655 37.29734802 C43.42146594 42.33118908 48.44966372 47.36757069 53.47691953 52.40490049 C59.20660297 58.14581277 64.93917126 63.88384077 70.67196774 69.62164414 C82.45116132 81.41125303 94.22677855 93.20442722 106 105 C104.52015245 108.42642232 102.59234053 110.66102082 99.96551514 113.29518127 C99.12160721 114.14617401 98.27769928 114.99716675 97.40821838 115.87394714 C96.48041061 116.7992775 95.55260284 117.72460785 94.59667969 118.67797852 C93.61065053 119.66835614 92.62503978 120.65915049 91.63981628 121.65032959 C88.96464363 124.33889024 86.28310261 127.02101205 83.59996319 129.70161939 C81.35917551 131.94133704 79.12137226 134.18402488 76.88351655 136.42667145 C71.60259058 141.71869231 66.31635394 147.00536699 61.02685547 152.28881836 C55.57408893 157.73554674 50.13055877 163.19138235 44.69147372 168.65177017 C40.01823795 173.34263348 35.3392029 178.02765646 30.65551877 182.70808738 C27.85964919 185.50214552 25.06604179 188.29837376 22.27803802 191.10028267 C19.65489093 193.73602186 17.02456272 196.36437902 14.38860512 198.98730469 C12.96536157 200.40706181 11.54950254 201.83420962 10.13389587 203.26158142 C9.27870865 204.10975433 8.42352142 204.95792725 7.54241943 205.83180237 C6.8057391 206.56865045 6.06905876 207.30549852 5.31005478 208.06467533 C1.77992719 211.02215629 -1.40266212 213 -6.0625 213 C-9.96721278 211.67073608 -11.6066679 210.37882179 -14 207 C-14.74627909 203.8737353 -14.68470589 201.13699684 -14 198 C-11.97443458 194.71439518 -9.34224226 192.20184317 -6.56445312 189.54272461 C-5.77441391 188.75137115 -4.98437469 187.9600177 -4.1703949 187.14468384 C-1.5614486 184.54199298 1.07788267 181.97260581 3.71875 179.40234375 C5.53674593 177.60113886 7.352761 175.7979326 9.16687012 173.99281311 C13.45358555 169.73691487 17.75970963 165.50167243 22.0759902 161.27583843 C26.99088233 156.46171323 31.8800947 151.6218572 36.76736736 146.77972019 C46.8166895 136.82434851 56.8976736 126.90156028 67 117 C65.7545565 116.99503478 65.7545565 116.99503478 64.48395252 116.98996925 C44.28675138 116.90877064 24.08962548 116.81668846 3.89252949 116.71247292 C-5.87460957 116.66233801 -15.6417402 116.61589517 -25.40893555 116.578125 C-33.92140905 116.54519755 -42.43381729 116.50536212 -50.94621879 116.45720994 C-55.45401309 116.43195248 -59.96176414 116.41016894 -64.46961021 116.39665604 C-68.71229275 116.3838289 -72.95482693 116.36176738 -77.19742775 116.33261681 C-78.75465415 116.32354615 -80.31190444 116.31785199 -81.86915588 116.31578636 C-83.99579935 116.31246018 -86.12202311 116.29697356 -88.24858093 116.2784729 C-90.03363305 116.27017676 -90.03363305 116.27017676 -91.85474682 116.26171303 C-95.88043184 115.92674024 -98.7883224 115.08633164 -101.8125 112.375 C-103.53154938 108.93690123 -103.67168473 105.72010003 -103 102 C-100.29873537 97.46573437 -100.29873537 97.46573437 -97.27382278 96.3809824 C-94.28334988 95.8799242 -91.40198288 95.85821508 -88.36883545 95.84178162 C-87.37140568 95.83437465 -87.37140568 95.83437465 -86.35382581 95.82681805 C-84.12748791 95.81146981 -81.90117879 95.80308971 -79.67480469 95.79467773 C-78.07817329 95.78509711 -76.48154443 95.77508691 -74.88491821 95.76467896 C-70.55059873 95.73764385 -66.21626838 95.71662672 -61.88191128 95.69667697 C-57.35218258 95.67480884 -52.82248734 95.64742419 -48.29278564 95.62062073 C-39.71518989 95.57070505 -31.13757554 95.52576203 -22.55994344 95.48259836 C-12.79459722 95.43321639 -3.02928459 95.37830181 6.73602915 95.32291877 C26.82398815 95.20911599 46.91197921 95.10227322 67 95 C66.58862321 94.589545 66.17724642 94.17909 65.75340366 93.75619698 C55.7526398 83.77749921 45.75463117 73.79604804 35.75969791 63.81151009 C30.92619636 58.98316898 26.09176011 54.1557707 21.25512695 49.33056641 C16.59096224 44.67741779 11.9293975 40.02167545 7.26943779 35.36431503 C5.48764129 33.58437184 3.70496229 31.80531165 1.92140388 30.02713394 C-0.56895352 27.54399381 -3.05620629 25.05778436 -5.54272461 22.57080078 C-6.28718842 21.82993225 -7.03165222 21.08906372 -7.79867554 20.32574463 C-8.81043602 19.31192215 -8.81043602 19.31192215 -9.84263611 18.27761841 C-10.43166183 17.68951448 -11.02068754 17.10141056 -11.62756252 16.49548531 C-14.27451732 13.61121402 -14.39054311 10.89724218 -14.35546875 7.0390625 C-13.75359564 3.58655959 -11.68176469 2.05809848 -9 0 C-5.40477521 -1.19840826 -3.64811583 -0.94939086 0 0 Z " fill="#000000" transform="translate(103,150)"/>
<path d="M0 0 C3.42349345 1.47941411 5.66064444 3.40519645 8.29518127 6.02775574 C9.14617401 6.87021851 9.99716675 7.71268127 10.87394714 8.58067322 C11.7992775 9.50690994 12.72460785 10.43314667 13.67797852 11.38745117 C14.66836402 12.37185056 15.65915816 13.35583897 16.65032959 14.33944702 C19.33899052 17.01044796 22.02113723 19.68789925 24.70161939 22.36710525 C26.37765374 24.0417173 28.0551044 25.71489684 29.7330761 27.38756752 C35.59006318 33.22605346 41.44186163 39.06968245 47.28881836 44.91821289 C52.73399531 50.36459086 58.19022088 55.79972192 63.65177017 61.22967738 C68.34436946 65.89609841 73.02919779 70.5702257 77.70808738 75.25039274 C80.50087397 78.04368855 83.29665785 80.83381089 86.10028267 83.61623192 C88.73822148 86.23476268 91.36632493 88.86278503 93.98730469 91.4982872 C95.40538656 92.91944682 96.83333143 94.33074356 98.26158142 95.74168396 C102.69083806 100.21474881 106.28524918 103.86202457 108 110 C107.44080115 113.72799231 106.80246817 116.04321103 104.375 118.9375 C100.81540806 120.52994903 97.75005106 120.95748471 94 120 C92.10570526 118.67446804 92.10570526 118.67446804 90.21569824 116.93516541 C89.51984116 116.297955 88.82398407 115.66074459 88.10704041 115.00422478 C84.79176607 111.85072333 81.52547401 108.65649158 78.29882812 105.41235352 C77.57589569 104.68956711 76.85296326 103.9667807 76.10812378 103.22209167 C73.7467844 100.86006209 71.38899535 98.49452287 69.03125 96.12890625 C67.38380478 94.47959367 65.73613694 92.83050343 64.08825684 91.18162537 C59.77231493 86.86188328 55.45938583 82.53914547 51.14709473 78.21575928 C46.73791314 73.79630959 42.32586464 69.37972402 37.9140625 64.96289062 C29.27324651 56.31138144 20.63561329 47.65670212 12 39 C11.99761165 39.82937387 11.99522329 40.65874775 11.99276257 41.51325417 C11.93362551 61.69413881 11.85808369 81.8749039 11.76428509 102.05565834 C11.71932032 111.81492661 11.6799072 121.57415833 11.65356445 131.33349609 C11.63058992 139.83977658 11.59719795 148.34594147 11.55129844 156.85213029 C11.5273589 161.35606437 11.50863491 165.85988391 11.50238609 170.36388016 C11.49633855 174.60416065 11.47635071 178.84414806 11.44572449 183.08432007 C11.43693896 184.63950948 11.43322275 186.19473719 11.43499184 187.74995041 C11.43664683 189.87641357 11.41992769 192.00198566 11.39872742 194.12832642 C11.39411845 195.31743937 11.38950949 196.50655231 11.38476086 197.73169899 C10.94847963 201.43763308 9.95300921 203.83360943 8 207 C4.31106884 209.45928744 1.28358579 209.69305579 -3 209 C-6.44312714 206.8755173 -7.71617547 205.85147359 -9 202 C-9.10376327 199.81887182 -9.14646977 197.63468945 -9.15821838 195.4511261 C-9.16562535 194.44885263 -9.16562535 194.44885263 -9.17318195 193.42633122 C-9.18856358 191.18306774 -9.19691935 188.93983289 -9.20532227 186.6965332 C-9.21490027 185.09019722 -9.2249103 183.48386376 -9.23532104 181.87753296 C-9.2623846 177.51216348 -9.28338632 173.14678318 -9.30332303 168.78137612 C-9.32517362 164.2209451 -9.35256685 159.6605475 -9.37937927 155.10014343 C-9.42931869 146.4623072 -9.47425289 137.82445242 -9.51740164 129.18657988 C-9.56676333 119.35354354 -9.62168542 109.52054074 -9.67708123 99.68753684 C-9.79092046 79.45838913 -9.89775528 59.22920941 -10 39 C-10.410455 39.41137679 -10.82091 39.82275358 -11.24380302 40.24659634 C-21.22250079 50.2473602 -31.20395196 60.24536883 -41.18848991 70.24030209 C-46.01683102 75.07380364 -50.8442293 79.90823989 -55.66943359 84.74487305 C-60.32258221 89.40903776 -64.97832455 94.0706025 -69.63568497 98.73056221 C-71.41562816 100.51235871 -73.19468835 102.29503771 -74.97286606 104.07859612 C-77.45600619 106.56895352 -79.94221564 109.05620629 -82.42919922 111.54272461 C-83.17006775 112.28718842 -83.91093628 113.03165222 -84.67425537 113.79867554 C-85.68807785 114.81043602 -85.68807785 114.81043602 -86.72238159 115.84263611 C-87.31048552 116.43166183 -87.89858944 117.02068754 -88.50451469 117.62756252 C-91.38777661 120.273591 -94.10194548 120.39988079 -97.9609375 120.34375 C-101.5266327 119.74263663 -102.96049868 117.84294123 -105 115 C-106.40446237 111.19969005 -106.28912281 109.63643129 -104.60968018 105.93955994 C-101.34961803 100.50513263 -96.65920681 96.26595933 -92.18261719 91.84204102 C-91.176469 90.83674016 -90.17098315 89.83077603 -89.16610718 88.82420349 C-86.44996481 86.10720391 -83.72470345 83.3995239 -80.99765682 80.69347501 C-78.14419293 77.85882368 -75.29927863 75.01561766 -72.45343018 72.17332458 C-67.06925233 66.79845377 -61.67747618 61.43127322 -56.28289914 56.06684202 C-50.1391368 49.95666551 -44.00393777 43.83792118 -37.86942816 37.71845734 C-25.25576192 25.13610971 -12.63143054 12.56451268 0 0 Z " fill="#000000" transform="translate(255,303)"/>
<path d="M0 0 C3.44312714 2.1244827 4.71617547 3.14852641 6 7 C6.10376327 9.18112818 6.14646977 11.36531055 6.15821838 13.5488739 C6.16562535 14.55114737 6.16562535 14.55114737 6.17318195 15.57366878 C6.18856358 17.81693226 6.19691935 20.06016711 6.20532227 22.3034668 C6.21490027 23.90980278 6.2249103 25.51613624 6.23532104 27.12246704 C6.2623846 31.48783652 6.28338632 35.85321682 6.30332303 40.21862388 C6.32517362 44.7790549 6.35256685 49.3394525 6.37937927 53.89985657 C6.42931869 62.5376928 6.47425289 71.17554758 6.51740164 79.81342012 C6.56676333 89.64645646 6.62168542 99.47945926 6.67708123 109.31246316 C6.79092046 129.54161087 6.89775528 149.77079059 7 170 C7.410455 169.58862321 7.82091 169.17724642 8.24380302 168.75340366 C18.22250079 158.7526398 28.20395196 148.75463117 38.18848991 138.75969791 C43.01683102 133.92619636 47.8442293 129.09176011 52.66943359 124.25512695 C57.32258221 119.59096224 61.97832455 114.9293975 66.63568497 110.26943779 C68.41562816 108.48764129 70.19468835 106.70496229 71.97286606 104.92140388 C74.45600619 102.43104648 76.94221564 99.94379371 79.42919922 97.45727539 C80.17006775 96.71281158 80.91093628 95.96834778 81.67425537 95.20132446 C82.35013702 94.52681747 83.02601868 93.85231049 83.72238159 93.15736389 C84.31048552 92.56833817 84.89858944 91.97931246 85.50451469 91.37243748 C88.38777661 88.726409 91.10194548 88.60011921 94.9609375 88.65625 C98.5266327 89.25736337 99.96049868 91.15705877 102 94 C103.40446237 97.80030995 103.28912281 99.36356871 101.60968018 103.06044006 C98.34961803 108.49486737 93.65920681 112.73404067 89.18261719 117.15795898 C88.176469 118.16325984 87.17098315 119.16922397 86.16610718 120.17579651 C83.44996481 122.89279609 80.72470345 125.6004761 77.99765682 128.30652499 C75.14419293 131.14117632 72.29927863 133.98438234 69.45343018 136.82667542 C64.06925233 142.20154623 58.67747618 147.56872678 53.28289914 152.93315798 C47.1391368 159.04333449 41.00393777 165.16207882 34.86942816 171.28154266 C22.25576192 183.86389029 9.63143054 196.43548732 -3 209 C-6.42349345 207.52058589 -8.66064444 205.59480355 -11.29518127 202.97224426 C-12.14617401 202.12978149 -12.99716675 201.28731873 -13.87394714 200.41932678 C-14.7992775 199.49309006 -15.72460785 198.56685333 -16.67797852 197.61254883 C-17.66836402 196.62814944 -18.65915816 195.64416103 -19.65032959 194.66055298 C-22.33899052 191.98955204 -25.02113723 189.31210075 -27.70161939 186.63289475 C-29.37765374 184.9582827 -31.0551044 183.28510316 -32.7330761 181.61243248 C-38.59006318 175.77394654 -44.44186163 169.93031755 -50.28881836 164.08178711 C-55.73399531 158.63540914 -61.19022088 153.20027808 -66.65177017 147.77032262 C-71.34436946 143.10390159 -76.02919779 138.4297743 -80.70808738 133.74960726 C-83.50087397 130.95631145 -86.29665785 128.16618911 -89.10028267 125.38376808 C-91.73822148 122.76523732 -94.36632493 120.13721497 -96.98730469 117.5017128 C-98.40538656 116.08055318 -99.83333143 114.66925644 -101.26158142 113.25831604 C-105.69083806 108.78525119 -109.28524918 105.13797543 -111 99 C-110.44080115 95.27200769 -109.80246817 92.95678897 -107.375 90.0625 C-103.81540806 88.47005097 -100.75005106 88.04251529 -97 89 C-95.10570526 90.32553196 -95.10570526 90.32553196 -93.21569824 92.06483459 C-92.51984116 92.702045 -91.82398407 93.33925541 -91.10704041 93.99577522 C-87.79176607 97.14927667 -84.52547401 100.34350842 -81.29882812 103.58764648 C-80.57589569 104.31043289 -79.85296326 105.0332193 -79.10812378 105.77790833 C-76.7467844 108.13993791 -74.38899535 110.50547713 -72.03125 112.87109375 C-70.38380478 114.52040633 -68.73613694 116.16949657 -67.08825684 117.81837463 C-62.77231493 122.13811672 -58.45938583 126.46085453 -54.14709473 130.78424072 C-49.73791314 135.20369041 -45.32586464 139.62027598 -40.9140625 144.03710938 C-32.27324651 152.68861856 -23.63561329 161.34329788 -15 170 C-14.99761165 169.17062613 -14.99522329 168.34125225 -14.99276257 167.48674583 C-14.93362551 147.30586119 -14.85808369 127.1250961 -14.76428509 106.94434166 C-14.71932032 97.18507339 -14.6799072 87.42584167 -14.65356445 77.66650391 C-14.63058992 69.16022342 -14.59719795 60.65405853 -14.55129844 52.14786971 C-14.5273589 47.64393563 -14.50863491 43.14011609 -14.50238609 38.63611984 C-14.49633855 34.39583935 -14.47635071 30.15585194 -14.44572449 25.91567993 C-14.43693896 24.36049052 -14.43322275 22.80526281 -14.43499184 21.25004959 C-14.43664683 19.12358643 -14.41992769 16.99801434 -14.39872742 14.87167358 C-14.39411845 13.68256063 -14.38950949 12.49344769 -14.38476086 11.26830101 C-13.94847963 7.56236692 -12.95300921 5.16639057 -11 2 C-7.31106884 -0.45928744 -4.28358579 -0.69305579 0 0 Z " fill="#000000" transform="translate(260,0)"/>
</svg>
