<svg width="50" height="61" viewBox="0 0 50 61" fill="none" xmlns="http://www.w3.org/2000/svg">
<path d="M10.1914 14.4546C10.1774 6.45503 16.5831 0.0187914 24.5757 4.04844e-05C32.5964 -0.0187104 39.1029 6.47847 39.0725 14.4827C39.042 22.4659 32.6057 28.86 24.6038 28.8576C16.5761 28.8529 10.2055 22.4847 10.1914 14.4546Z" fill="#010101"/>
<path fill-rule="evenodd" clip-rule="evenodd" d="M24.2098 59.9655C24.47 59.9656 24.7302 59.9656 24.9905 59.9656C24.9905 59.9609 24.9905 59.9585 24.9928 59.9539C26.5288 59.9539 28.0651 59.9592 29.6015 59.9645C33.0585 59.9765 36.516 59.9885 39.9724 59.9398C45.1664 59.8671 49.3267 56.5107 49.8096 51.7199C50.3838 46.0173 49.7088 40.4248 47.0344 35.2379C45.5648 32.3854 43.3499 30.3486 40.1951 29.4392C37.959 28.7946 35.8308 28.7079 33.9018 30.3111C33.3369 30.7799 32.6877 31.1572 32.0431 31.5205C28.3258 33.6136 24.4795 34.2019 20.3777 32.6643C18.896 32.108 17.5926 31.2755 16.2873 30.4417C15.9263 30.2112 15.5652 29.9805 15.2002 29.7556C14.3868 29.254 13.5595 28.9423 12.5657 28.9938C8.2014 29.2165 5.04891 31.3283 3.01913 35.1254C0.363534 40.099 -0.259933 45.5063 0.0869584 51.0097C0.139099 51.8439 0.277782 52.6272 0.499452 53.3576C2.00116 48.2561 6.71919 44.5336 12.3054 44.5336C19.103 44.5336 24.6107 50.0439 24.6107 56.8388C24.6107 57.9192 24.4714 58.9671 24.2098 59.9655Z" fill="#010101"/>
<g clip-path="url(#clip0_9268_554)">
<path d="M12.7247 49.2731C13.7573 49.2731 14.7893 49.2711 15.8219 49.2736C17.4298 49.2776 18.5658 50.4146 18.5693 52.0265C18.5723 53.3919 18.5733 54.7574 18.5688 56.1229C18.5638 57.7092 17.4143 58.8573 15.8269 58.8643C14.9193 58.8682 14.0117 58.8683 13.1045 58.8618C12.9381 58.8608 12.8021 58.9012 12.6652 58.9942C11.7556 59.608 10.8399 60.2127 9.9303 60.8265C9.71639 60.9709 9.50147 61.0549 9.25807 60.9214C9.02366 60.7935 8.97418 60.5726 8.97718 60.3252C8.98218 59.8838 8.97468 59.4425 8.98118 59.0017C8.98318 58.8687 8.95919 58.8058 8.80925 58.7618C7.60373 58.4094 6.86053 57.4103 6.85654 56.1483C6.85254 54.7579 6.85104 53.3675 6.85704 51.977C6.86303 50.4291 8.00757 49.2826 9.55245 49.2746C10.61 49.2686 11.6676 49.2731 12.7247 49.2731ZM12.7377 52.4703C11.6886 52.4703 10.6395 52.4733 9.59044 52.4683C9.33104 52.4668 9.13112 52.5518 9.02516 52.7932C8.86173 53.168 9.13962 53.5309 9.58994 53.5309C11.6711 53.5324 13.7528 53.5314 15.8339 53.5314C15.8839 53.5314 15.9344 53.5334 15.9834 53.5264C16.2323 53.4894 16.4207 53.287 16.4422 53.0371C16.4612 52.8162 16.3157 52.5873 16.1048 52.5038C16.0009 52.4628 15.8919 52.4708 15.7844 52.4708C14.7689 52.4703 13.7533 52.4703 12.7377 52.4703ZM12.7392 54.5925C12.0325 54.5925 11.3252 54.5875 10.6185 54.5945C10.2747 54.598 10.0538 54.8179 10.0533 55.1283C10.0523 55.4386 10.2732 55.664 10.6155 55.6655C12.0125 55.671 13.4094 55.6685 14.8063 55.6675C14.9703 55.6675 15.1172 55.6176 15.2317 55.4931C15.3821 55.3302 15.4141 55.1362 15.3376 54.9373C15.2432 54.6919 15.0407 54.5925 14.7843 54.592C14.1026 54.5925 13.4209 54.5925 12.7392 54.5925Z" fill="#010101"/>
<path d="M12.7383 52.4698C13.7539 52.4698 14.77 52.4693 15.7856 52.4703C15.893 52.4703 16.002 52.4623 16.1059 52.5033C16.3168 52.5867 16.4628 52.8157 16.4433 53.0366C16.4218 53.287 16.2334 53.4894 15.9845 53.5259C15.9355 53.5334 15.885 53.5309 15.835 53.5309C13.7539 53.5309 11.6722 53.5319 9.59104 53.5304C9.14072 53.5299 8.86283 53.1675 9.02627 52.7927C9.13173 52.5513 9.33214 52.4663 9.59154 52.4678C10.6401 52.4733 11.6892 52.4698 12.7383 52.4698Z" fill="#2E2E2E"/>
<path d="M12.7399 54.5925C13.4216 54.5925 14.1038 54.5925 14.7855 54.5925C15.0414 54.5925 15.2444 54.6919 15.3388 54.9378C15.4153 55.1367 15.3833 55.3307 15.2329 55.4936C15.1184 55.6175 14.971 55.6675 14.8075 55.668C13.4106 55.669 12.0137 55.672 10.6167 55.666C10.2749 55.6645 10.0539 55.4391 10.0544 55.1287C10.0554 54.8184 10.2764 54.5984 10.6197 54.595C11.3259 54.5875 12.0326 54.5925 12.7399 54.5925Z" fill="#2E2E2E"/>
</g>
<defs>
<clipPath id="clip0_9268_554">
<rect width="11.7193" height="11.7163" fill="white" transform="translate(6.85303 49.2715)"/>
</clipPath>
</defs>
</svg>
