<svg width="50" height="60" viewBox="0 0 50 60" fill="none" xmlns="http://www.w3.org/2000/svg">
<path d="M10.1914 14.4546C10.1774 6.45503 16.5831 0.0187914 24.5757 4.04844e-05C32.5964 -0.0187104 39.1029 6.47847 39.0725 14.4827C39.042 22.4659 32.6057 28.86 24.6038 28.8576C16.5761 28.8529 10.2055 22.4847 10.1914 14.4546Z" fill="#010101"/>
<path fill-rule="evenodd" clip-rule="evenodd" d="M24.2098 59.9655C24.47 59.9656 24.7302 59.9656 24.9905 59.9656C24.9905 59.9609 24.9905 59.9585 24.9928 59.9539C26.5288 59.9539 28.0651 59.9592 29.6015 59.9645C33.0585 59.9765 36.516 59.9885 39.9724 59.9398C45.1664 59.8671 49.3267 56.5107 49.8096 51.7199C50.3838 46.0173 49.7088 40.4248 47.0344 35.2379C45.5648 32.3854 43.3499 30.3486 40.1951 29.4392C37.959 28.7946 35.8308 28.7079 33.9018 30.3111C33.3369 30.7799 32.6877 31.1572 32.0431 31.5205C28.3258 33.6136 24.4795 34.2019 20.3777 32.6643C18.896 32.108 17.5926 31.2755 16.2873 30.4417C15.9263 30.2112 15.5652 29.9805 15.2002 29.7556C14.3868 29.254 13.5595 28.9423 12.5657 28.9938C8.2014 29.2165 5.04891 31.3283 3.01913 35.1254C0.363534 40.099 -0.259933 45.5063 0.0869584 51.0097C0.139099 51.8439 0.277782 52.6272 0.499452 53.3576C2.00116 48.2561 6.71919 44.5336 12.3054 44.5336C19.103 44.5336 24.6107 50.0439 24.6107 56.8388C24.6107 57.9192 24.4714 58.9671 24.2098 59.9655Z" fill="#010101"/>
<path d="M9.91497 50.4214C11.1046 50.4118 12.2965 50.3998 13.4861 50.3926C14.6277 50.3854 15.3736 51.1121 15.3832 52.2514C15.4024 54.17 15.4168 56.0863 15.4288 58.005C15.436 59.1226 14.6973 59.8805 13.5869 59.8901C11.1741 59.9141 8.76136 59.9333 6.34861 59.9477C5.27175 59.9549 4.51147 59.2066 4.50188 58.1345C4.48269 56.1847 4.4659 54.2348 4.45391 52.2873C4.44671 51.2321 5.195 50.467 6.24548 50.4526C7.46864 50.4358 8.6918 50.431 9.91497 50.4214Z" fill="#010101"/>
<path d="M20.7425 55.0932C20.7497 55.9662 20.7593 56.8392 20.7617 57.7122C20.7641 58.6548 19.9343 59.1512 19.1069 58.6955C18.2602 58.2302 17.4256 57.7434 16.579 57.2805C16.4255 57.1966 16.3823 57.1006 16.3823 56.9375C16.3799 55.7168 16.3703 54.496 16.3511 53.2752C16.3487 53.1002 16.4135 53.0162 16.555 52.9347C17.392 52.4502 18.2195 51.9537 19.0541 51.4717C19.8527 51.0088 20.7018 51.4885 20.7185 52.4118C20.7329 53.304 20.7353 54.1986 20.7425 55.0932Z" fill="#010101"/>
</svg>
