<svg width="50" height="62" viewBox="0 0 50 62" fill="none" xmlns="http://www.w3.org/2000/svg">
<path d="M10.1914 14.4546C10.1774 6.45503 16.5831 0.0187914 24.5757 4.04844e-05C32.5964 -0.0187104 39.1029 6.47847 39.0725 14.4827C39.042 22.4659 32.6057 28.86 24.6038 28.8576C16.5761 28.8529 10.2055 22.4847 10.1914 14.4546Z" fill="#010101"/>
<path fill-rule="evenodd" clip-rule="evenodd" d="M24.2098 59.9655C24.47 59.9656 24.7302 59.9656 24.9905 59.9656C24.9905 59.9609 24.9905 59.9585 24.9928 59.9539C26.5288 59.9539 28.0651 59.9592 29.6015 59.9645C33.0585 59.9765 36.516 59.9885 39.9724 59.9398C45.1664 59.8671 49.3267 56.5107 49.8096 51.7199C50.3838 46.0173 49.7088 40.4248 47.0344 35.2379C45.5648 32.3854 43.3499 30.3486 40.1951 29.4392C37.959 28.7946 35.8308 28.7079 33.9018 30.3111C33.3369 30.7799 32.6877 31.1572 32.0431 31.5205C28.3258 33.6136 24.4795 34.2019 20.3777 32.6643C18.896 32.108 17.5926 31.2755 16.2873 30.4417C15.9263 30.2112 15.5652 29.9805 15.2002 29.7556C14.3868 29.254 13.5595 28.9423 12.5657 28.9938C8.2014 29.2165 5.04891 31.3283 3.01913 35.1254C0.363534 40.099 -0.259933 45.5063 0.0869584 51.0097C0.139099 51.8439 0.277782 52.6272 0.499452 53.3576C2.00116 48.2561 6.71919 44.5336 12.3054 44.5336C19.103 44.5336 24.6107 50.0439 24.6107 56.8388C24.6107 57.9192 24.4714 58.9671 24.2098 59.9655Z" fill="#010101"/>
<g clip-path="url(#clip0_9268_546)">
<path d="M9.76445 53.1149C9.78885 52.4908 9.70885 51.7136 9.79906 50.9425C9.92558 49.8555 10.864 49.0192 11.9573 48.9897C12.3453 48.9795 12.7317 48.9846 13.1039 49.1179C14.0128 49.443 14.6028 50.2872 14.6085 51.3028C14.6158 52.6156 14.617 53.9291 14.6085 55.2425C14.5994 56.5916 13.6253 57.5516 12.2761 57.5595C11.0041 57.5669 10.1139 56.9394 9.83594 55.8382C9.78261 55.6271 9.76388 55.4104 9.76445 55.1925C9.76502 54.5497 9.76445 53.9069 9.76445 53.1149Z" fill="#020202"/>
<path d="M12.1829 61.6918C11.5781 61.6918 10.9733 61.6924 10.3685 61.6918C9.99005 61.6913 9.77105 61.5284 9.76538 61.2453C9.75971 60.9514 9.98211 60.7846 10.3815 60.7841C10.769 60.7835 11.1565 60.779 11.544 60.7869C11.6836 60.7898 11.7443 60.762 11.7375 60.6037C11.7244 60.2831 11.7267 59.9609 11.7369 59.6397C11.7415 59.4962 11.6938 59.4497 11.552 59.4264C9.44199 59.0866 7.96348 57.6534 7.56974 55.5656C7.52606 55.3347 7.50847 55.097 7.50109 54.8615C7.49145 54.5563 7.67697 54.3469 7.93908 54.3373C8.20063 54.3271 8.38842 54.5217 8.40431 54.8326C8.4826 56.3939 9.20087 57.5559 10.6175 58.2231C13.0481 59.3668 15.7821 57.6739 15.9665 54.937C15.9744 54.8161 15.9563 54.6902 16.0249 54.5784C16.1412 54.3884 16.3063 54.3021 16.527 54.3577C16.7755 54.4201 16.8811 54.6 16.876 54.8422C16.8612 55.5599 16.7126 56.2504 16.3773 56.8864C15.6233 58.3172 14.4488 59.1762 12.8438 59.4247C12.6957 59.4474 12.6311 59.486 12.6379 59.6482C12.6509 59.9597 12.6503 60.2723 12.6379 60.5838C12.6316 60.7427 12.677 60.7926 12.8393 60.788C13.2546 60.7767 13.671 60.7812 14.0869 60.7852C14.3949 60.7881 14.6009 60.9662 14.6094 61.226C14.6179 61.4955 14.4035 61.6896 14.0829 61.6913C13.4492 61.6941 12.816 61.6918 12.1829 61.6918Z" fill="#030303"/>
</g>
<defs>
<clipPath id="clip0_9268_546">
<rect width="9.37543" height="12.7058" fill="white" transform="translate(7.5 48.9863)"/>
</clipPath>
</defs>
</svg>
