<svg width="1290" height="1290" viewBox="0 0 1290 1290" fill="none" xmlns="http://www.w3.org/2000/svg">
    <path d="M645 1290C1001.22 1290 1290 1001.22 1290 645C1290 288.776 1001.22 0 645 0C288.776 0 0 288.776 0 645C0 1001.22 288.776 1290 645 1290Z"
          fill="url(#paint0_linear_1_3)"/>
    <path d="M384.417 662.64C526.675 662.64 641.997 547.318 641.997 405.06C641.997 262.803 526.675 147.48 384.417 147.48C242.16 147.48 126.837 262.803 126.837 405.06C126.837 547.318 242.16 662.64 384.417 662.64Z"
          fill="url(#paint1_radial_1_3)" stroke="#F4621B" stroke-width="2"/>
    <path d="M980.409 469.563C1016.03 469.563 1044.91 440.685 1044.91 405.063C1044.91 369.441 1016.03 340.563 980.409 340.563C944.787 340.563 915.909 369.441 915.909 405.063C915.909 440.685 944.787 469.563 980.409 469.563Z"
          fill="black"/>
    <path d="M492.36 287.872C499.097 273.576 484.281 258.288 459.268 246.5C434.254 234.712 408.515 230.889 401.778 245.186C395.041 259.482 409.857 280.627 434.87 292.415C459.884 304.203 485.623 302.169 492.36 287.872Z"
          fill="#F4621B"/>
    <path d="M384.411 578.16C480.011 578.16 557.511 500.66 557.511 405.06C557.511 309.46 480.011 231.96 384.411 231.96C288.81 231.96 211.311 309.46 211.311 405.06C211.311 500.66 288.81 578.16 384.411 578.16Z"
          stroke="white" stroke-width="5"/>
    <defs>
        <linearGradient id="paint0_linear_1_3" x1="283.8" y1="101.91" x2="1163.58" y2="1100.37"
                        gradientUnits="userSpaceOnUse">
            <stop stop-color="#F4621B"/>
            <stop offset="0.360143" stop-color="#F4621B"/>
            <stop offset="0.360243" stop-color="white"/>
            <stop offset="0.65181" stop-color="white"/>
            <stop offset="0.65191" stop-color="#F4621B"/>
            <stop offset="0.840699" stop-color="#F4621B"/>
            <stop offset="0.840799"/>
        </linearGradient>
        <radialGradient id="paint1_radial_1_3" cx="0" cy="0" r="1" gradientUnits="userSpaceOnUse"
                        gradientTransform="translate(384.417 405.06) rotate(90) scale(260.58)">
            <stop/>
        </radialGradient>
    </defs>
</svg>
